<svg width="152" height="151" viewBox="0 0 152 151" fill="none" xmlns="http://www.w3.org/2000/svg">
<g clip-path="url(#clip0_531_196)">
<path d="M83.1996 69.2V67.6C78.0996 67.6 73.7996 65.7 73.7996 57.2V35.4H99.8996V57.5C99.8996 66.2 95.1996 67.5 90.4996 67.5V69.2H144.8L147.8 47.3H146.6C143.7 55.6 135.5 67 123 67H111.9V35.3C124.5 35.5 128.1 42.5 130.2 50.8H131.6L127.4 17.5H126.2C125.8 25.4 125 33 111.9 33V2.3H120.3C132.8 2.3 141 13.7 143.9 22H145.1L142.1 0.1H90.5996V1.8C95.2996 1.8 99.9996 3.1 99.9996 11.8V33.2H73.8996V12C73.8996 3.5 78.1996 1.6 83.2996 1.6V0H7.09961L4.09961 21.9H5.39961C8.29961 13.6 19.0996 1.6 28.5996 1.6V57.1C28.5996 64.8 22.4996 67.5 17.3996 67.5V69.1H40.4996V1.6C56.0996 1.6 61.5996 9.2 61.8996 19.8V57.1C61.8996 64.8 55.7996 67.5 50.6996 67.5V69.1H83.1996V69.2Z" fill="#EC012A"/>
<path d="M12.7004 81.4H0.500391V83C5.40039 83 11.6004 85.7 11.6004 93.4V138.5C11.6004 146.2 5.50039 148.9 0.400391 148.9V150.5H25.4004V148.9C21.5004 148.9 14.3004 147 14.3004 138.5V96L36.1004 143.6H37.1004L58.6004 93.4V138.3C58.6004 147 51.8004 148.8 47.5004 148.8V150.5H103.7L106.7 128.6H105.5C102.6 136.9 94.4004 148.3 81.9004 148.3H70.9004V116.6C83.4004 116.8 87.1004 123.8 89.1004 132.1H90.5004L86.4004 98.8H85.2004C84.8004 106.7 84.0004 114.2 71.0004 114.3V83.6H77.5004C92.5004 83.6 96.2004 95.5 97.0004 103.4H98.2004C99.2004 94.5 103 83.3 116.5 83.3V150.6H139.7V149C134.6 149 128.5 146.3 128.5 138.6V83C140.3 83 148.8 97.9 150.5 103.4H151.7L149.2 81.4H69.2004C64.2004 81.2 59.6004 84.2 57.8004 88.9L41.7004 126.8L23.9004 87.5C22.5004 84.4 18.3004 81.4 12.7004 81.4Z" fill="#EC012A"/>
</g>
<defs>
<clipPath id="clip0_531_196">
<rect width="151.2" height="150.6" fill="white" transform="translate(0.400391)"/>
</clipPath>
</defs>
</svg>
